<svg width="366" height="151" viewBox="0 0 366 151" fill="none" xmlns="http://www.w3.org/2000/svg">
<path d="M24.0287 124.786H0.8144V148H24.0287V124.786ZM69.5423 2.91088H47.5716V148H106.229V127.273H69.5423V2.91088ZM152.996 0.838181C131.025 0.838181 117.553 14.7253 117.553 37.525V113.386C117.553 136.186 131.025 150.073 152.996 150.073C174.967 150.073 188.439 136.186 188.439 113.386V37.525C188.439 14.7253 174.967 0.838181 152.996 0.838181ZM152.996 21.1507C161.701 21.1507 166.469 26.9542 166.469 37.7323V113.179C166.469 123.957 161.701 129.76 152.996 129.76C144.291 129.76 139.523 123.957 139.523 113.179V37.7323C139.523 26.9542 144.291 21.1507 152.996 21.1507ZM241.623 0.838181C219.86 0.838181 207.424 13.6889 207.424 35.6596V115.251C207.424 137.222 219.86 150.073 241.623 150.073C263.594 150.073 276.238 137.222 276.238 115.251V67.7864H242.245V88.0989H254.681V112.971C254.681 124.578 250.536 129.76 242.038 129.76C233.54 129.76 229.395 124.578 229.395 115.044V35.8668C229.395 26.3324 233.747 21.1507 242.245 21.1507C250.743 21.1507 255.096 26.3324 255.096 37.9395V46.6449L276.238 45.6085V35.6596C276.238 13.6889 263.594 0.838181 241.623 0.838181ZM330.107 0.838181C308.136 0.838181 294.664 14.7253 294.664 37.525V113.386C294.664 136.186 308.136 150.073 330.107 150.073C352.077 150.073 365.55 136.186 365.55 113.386V37.525C365.55 14.7253 352.077 0.838181 330.107 0.838181ZM330.107 21.1507C338.812 21.1507 343.579 26.9542 343.579 37.7323V113.179C343.579 123.957 338.812 129.76 330.107 129.76C321.401 129.76 316.634 123.957 316.634 113.179V37.7323C316.634 26.9542 321.401 21.1507 330.107 21.1507Z" fill="#A8E821"/>
</svg>
