<svg width="508" height="146" viewBox="0 0 508 146" fill="none" xmlns="http://www.w3.org/2000/svg">
<path d="M72.3226 0.91088H51.5956V87.3425H51.181L25.2723 0.91088H0.8144V146H21.5414V49.8266H21.956L50.7665 146H72.3226V0.91088ZM141.133 0.91088H113.152L88.0719 146H110.043L114.81 113.044H139.06L143.828 146H166.213L141.133 0.91088ZM127.246 32.0014L136.159 93.1461H117.712L126.624 32.0014H127.246ZM246.349 0.91088H224.378L208.211 111.593H207.796L191.422 0.91088H169.037L193.495 146H221.891L246.349 0.91088Z" fill="#A8E821"/>
<path d="M292.805 0.91088H262.129V146H294.463C318.092 146 330.942 133.149 330.942 109.313V104.339C330.942 85.2698 325.139 74.4918 311.459 70.3464V69.9318C323.066 65.9937 327.833 56.4593 327.833 40.2922V37.5977C327.833 13.7616 315.604 0.91088 292.805 0.91088ZM291.976 21.2234C301.51 21.2234 305.863 26.6124 305.863 38.4268V43.194C305.863 55.4229 301.51 60.812 290.939 60.812H284.099V21.2234H291.976ZM292.597 81.1244C304.204 81.1244 308.972 86.928 308.972 99.7788V107.862C308.972 120.091 304.204 125.688 293.634 125.688H284.099V81.1244H292.597ZM393.541 0.91088H365.56L340.48 146H362.451L367.218 113.044H391.468L396.236 146H418.621L393.541 0.91088ZM379.654 32.0014L388.567 93.1461H370.12L379.032 32.0014H379.654ZM507.133 146L487.028 79.8808C497.184 74.0773 502.573 63.2992 502.573 47.9612V37.5977C502.573 13.7616 489.723 0.91088 466.094 0.91088H434.381V146H456.352V84.648H466.508L483.919 146H507.133ZM465.265 21.2234C475.836 21.2234 480.603 26.8196 480.603 39.0486V46.5103C480.603 58.7393 475.836 64.3356 465.265 64.3356H456.352V21.2234H465.265Z" fill="#333333"/>
</svg>
